<svg width="309" height="123" viewBox="0 0 309 123" fill="none" xmlns="http://www.w3.org/2000/svg">
<path d="M42.7153 2.27344L22.085 121H0.149902L20.6987 2.27344H42.7153ZM112.598 2.27344L56.0068 60.5767L24.042 89.9321V66.5293L46.3032 42.311L84.3022 2.27344H112.598ZM67.5859 121L40.8398 64.5723L58.127 50.7915L92.375 121H67.5859ZM145.459 2.27344L124.829 121H102.894L123.443 2.27344H145.459ZM215.342 2.27344L158.751 60.5767L126.786 89.9321V66.5293L149.047 42.311L187.046 2.27344H215.342ZM170.33 121L143.584 64.5723L160.871 50.7915L195.119 121H170.33ZM307.078 58.375L306.262 64.4092C305.175 71.9655 303.164 79.25 300.228 86.2627C297.292 93.2754 293.433 99.5542 288.649 105.099C283.865 110.59 278.184 114.939 271.606 118.146C265.029 121.299 257.554 122.794 249.182 122.631C241.191 122.468 234.45 120.728 228.959 117.412C223.469 114.042 219.12 109.584 215.913 104.039C212.76 98.4941 210.639 92.3241 209.552 85.5288C208.519 78.6792 208.438 71.748 209.308 64.7354L210.123 58.6196C211.21 51.1177 213.249 43.8875 216.239 36.9292C219.229 29.9165 223.116 23.6649 227.899 18.1743C232.683 12.6294 238.364 8.28044 244.942 5.12744C251.574 1.97445 259.022 0.479492 267.285 0.642578C275.276 0.751302 282.017 2.49089 287.507 5.86133C292.998 9.17741 297.32 13.6079 300.473 19.1528C303.626 24.6978 305.719 30.8678 306.751 37.6631C307.839 44.4583 307.947 51.3623 307.078 58.375ZM284.164 64.7354L284.979 58.375C285.469 54.4609 285.713 50.2751 285.713 45.8174C285.713 41.3053 285.143 37.0379 284.001 33.0151C282.859 28.938 280.875 25.5947 278.048 22.9854C275.222 20.3216 271.226 18.881 266.062 18.6636C260.625 18.4461 255.923 19.5334 251.955 21.9253C247.986 24.2629 244.643 27.443 241.925 31.4658C239.261 35.4342 237.141 39.7832 235.564 44.5127C234.042 49.2422 232.955 53.8901 232.303 58.4565L231.487 64.8169C230.998 68.6222 230.753 72.7809 230.753 77.293C230.753 81.805 231.324 86.1268 232.466 90.2583C233.607 94.3354 235.592 97.7331 238.418 100.451C241.245 103.115 245.241 104.528 250.405 104.691C255.896 104.909 260.625 103.822 264.594 101.43C268.562 99.0378 271.878 95.8576 274.542 91.8892C277.206 87.8664 279.326 83.4902 280.902 78.7607C282.479 73.9769 283.566 69.3018 284.164 64.7354Z" fill="url(#paint0_linear_32_6)"/>
<defs>
<linearGradient id="paint0_linear_32_6" x1="-10" y1="0" x2="281.965" y2="186.343" gradientUnits="userSpaceOnUse">
<stop stop-color="#42E695"/>
<stop offset="0.5" stop-color="#3AD4B1"/>
<stop offset="1" stop-color="#3BB2B8"/>
</linearGradient>
</defs>
</svg>
