<svg width="512" height="512" viewBox="0 0 512 512" fill="none" xmlns="http://www.w3.org/2000/svg">
<path fill-rule="evenodd" clip-rule="evenodd" d="M274 446.5V66H411C441 66 507 93 507 175C507 257 433.934 281.523 401.5 281C369.066 280.477 350 281 350 281V370L274 446.5ZM350 214V137.5C354.314 137.395 358.416 137.277 362.315 137.166C414.004 135.685 430 135.227 430 178C430 217.883 386.025 215.669 360.316 214.375C356.373 214.177 352.859 214 350 214Z" fill="white"/>
<path fill-rule="evenodd" clip-rule="evenodd" d="M274 446.5V66H411C441 66 507 93 507 175C507 257 433.934 281.523 401.5 281C369.066 280.477 350 281 350 281V370L274 446.5ZM350 214V137.5C354.314 137.395 358.416 137.277 362.315 137.166C414.004 135.685 430 135.227 430 178C430 217.883 386.025 215.669 360.316 214.375C356.373 214.177 352.859 214 350 214Z" fill="white"/>
<path fill-rule="evenodd" clip-rule="evenodd" d="M237 446.5V66H100C70 66 4.00001 93 4 175C3.99999 257 77.0663 281.523 109.5 281C141.934 280.477 161 281 161 281V370L237 446.5ZM161 214V137.5C156.686 137.395 152.584 137.277 148.685 137.166C96.9957 135.685 81 135.227 81 178C81 217.883 124.976 215.669 150.684 214.375C154.627 214.177 158.141 214 161 214Z" fill="white"/>
<path fill-rule="evenodd" clip-rule="evenodd" d="M237 446.5V66H100C70 66 4.00001 93 4 175C3.99999 257 77.0663 281.523 109.5 281C141.934 280.477 161 281 161 281V370L237 446.5ZM161 214V137.5C156.686 137.395 152.584 137.277 148.685 137.166C96.9957 135.685 81 135.227 81 178C81 217.883 124.976 215.669 150.684 214.375C154.627 214.177 158.141 214 161 214Z" fill="white"/>
</svg>
