<svg width="564" height="49" viewBox="0 0 564 49" fill="none" xmlns="http://www.w3.org/2000/svg">
<path d="M18.6719 3.21094L10.8892 48H0.368652L8.12061 3.21094H18.6719ZM44.9424 3.21094L23.9629 26.1592L12.0889 37.2949L11.9043 26.6206L19.7178 16.9922L31.3149 3.21094H44.9424ZM24.6704 48L16.7954 27.4512L25.624 21.5449L36.6675 48H24.6704ZM39.8052 31.8809L39.8667 31.2349C40.1333 28.8354 40.7178 26.5898 41.6201 24.498C42.5225 22.4062 43.7222 20.5708 45.2192 18.9917C46.7368 17.4126 48.521 16.1924 50.5718 15.3311C52.6226 14.4492 54.9194 14.0391 57.4624 14.1006C59.9028 14.1416 62.0151 14.6133 63.7993 15.5156C65.5835 16.418 67.0498 17.6484 68.1982 19.207C69.3467 20.7451 70.1567 22.5293 70.6284 24.5596C71.1206 26.5693 71.2642 28.7124 71.0591 30.9888L70.9976 31.6655C70.731 34.0444 70.1362 36.2695 69.2134 38.3408C68.2905 40.4121 67.0703 42.2271 65.5527 43.7856C64.0557 45.3442 62.2817 46.5542 60.231 47.4155C58.1802 48.2769 55.8936 48.6768 53.3711 48.6152C50.9717 48.5742 48.8696 48.1128 47.0649 47.231C45.2808 46.3286 43.8145 45.1187 42.666 43.6011C41.5176 42.063 40.6973 40.2993 40.2051 38.3101C39.7334 36.3003 39.6001 34.1572 39.8052 31.8809ZM49.9873 31.2349L49.9258 31.8809C49.8643 32.7217 49.8232 33.6445 49.8027 34.6494C49.8027 35.6338 49.9155 36.5874 50.1411 37.5103C50.3667 38.4126 50.7769 39.1611 51.3716 39.7559C51.9868 40.3301 52.8687 40.6377 54.0171 40.6787C55.2476 40.7197 56.2729 40.4634 57.0933 39.9097C57.9341 39.356 58.6108 38.6177 59.1235 37.6948C59.6362 36.772 60.0259 35.7773 60.2925 34.7109C60.5796 33.6445 60.7744 32.6191 60.877 31.6348L60.9385 30.9888C61 30.1685 61.0308 29.2559 61.0308 28.251C61.0513 27.2256 60.9487 26.2515 60.7231 25.3286C60.4976 24.4058 60.0771 23.647 59.4619 23.0522C58.8467 22.437 57.9648 22.1089 56.8164 22.0679C55.5859 22.0269 54.5503 22.2935 53.7095 22.8677C52.8892 23.4419 52.2227 24.2007 51.71 25.144C51.1973 26.0669 50.8076 27.0718 50.541 28.1587C50.2744 29.2251 50.0898 30.2505 49.9873 31.2349ZM87.1475 22.314L82.687 48H72.5664L78.3496 14.7158H87.7935L87.1475 22.314ZM84.625 30.2197L82.4409 30.312C82.646 28.3228 83.0664 26.354 83.7021 24.4058C84.3584 22.4575 85.2607 20.6938 86.4092 19.1147C87.5576 17.5356 88.9829 16.2847 90.6851 15.3618C92.3872 14.439 94.3765 14.0083 96.6528 14.0698C98.3345 14.1108 99.729 14.4697 100.836 15.1465C101.944 15.8027 102.805 16.6846 103.42 17.792C104.056 18.8789 104.466 20.1196 104.651 21.5142C104.856 22.8882 104.887 24.3135 104.743 25.79L101.052 48H90.9312L94.4072 27.082C94.5098 26.2207 94.5303 25.4106 94.4688 24.6519C94.4072 23.8931 94.1611 23.2778 93.7305 22.8062C93.2998 22.314 92.5718 22.0576 91.5464 22.0371C90.439 21.9961 89.4854 22.2319 88.6855 22.7446C87.8857 23.2368 87.209 23.8931 86.6553 24.7134C86.1221 25.5337 85.6812 26.4258 85.3325 27.3896C85.0044 28.3535 84.7686 29.2969 84.625 30.2197ZM103.051 30.2197L100.375 30.312C100.58 28.3228 100.99 26.3643 101.605 24.4365C102.241 22.4883 103.113 20.7246 104.22 19.1455C105.348 17.5664 106.753 16.3154 108.435 15.3926C110.116 14.4697 112.105 14.0288 114.402 14.0698C116.248 14.1313 117.766 14.5312 118.955 15.2695C120.145 16.0078 121.047 16.9922 121.662 18.2227C122.298 19.4531 122.708 20.8271 122.893 22.3447C123.077 23.8623 123.087 25.4312 122.923 27.0513L119.417 48H109.265L112.772 27.0205C112.875 26.1797 112.895 25.3901 112.833 24.6519C112.772 23.8931 112.526 23.2778 112.095 22.8062C111.685 22.314 110.978 22.0576 109.973 22.0371C108.824 21.9961 107.84 22.2217 107.02 22.7139C106.22 23.2061 105.553 23.8623 105.02 24.6826C104.487 25.4824 104.066 26.3745 103.759 27.3589C103.451 28.3228 103.215 29.2764 103.051 30.2197ZM139.812 22.314L135.351 48H125.23L131.014 14.7158H140.458L139.812 22.314ZM137.289 30.2197L135.105 30.312C135.31 28.3228 135.73 26.354 136.366 24.4058C137.022 22.4575 137.925 20.6938 139.073 19.1147C140.222 17.5356 141.647 16.2847 143.349 15.3618C145.051 14.439 147.041 14.0083 149.317 14.0698C150.999 14.1108 152.393 14.4697 153.5 15.1465C154.608 15.8027 155.469 16.6846 156.084 17.792C156.72 18.8789 157.13 20.1196 157.315 21.5142C157.52 22.8882 157.551 24.3135 157.407 25.79L153.716 48H143.595L147.071 27.082C147.174 26.2207 147.194 25.4106 147.133 24.6519C147.071 23.8931 146.825 23.2778 146.395 22.8062C145.964 22.314 145.236 22.0576 144.21 22.0371C143.103 21.9961 142.149 22.2319 141.35 22.7446C140.55 23.2368 139.873 23.8931 139.319 24.7134C138.786 25.5337 138.345 26.4258 137.997 27.3896C137.668 28.3535 137.433 29.2969 137.289 30.2197ZM155.715 30.2197L153.039 30.312C153.244 28.3228 153.654 26.3643 154.27 24.4365C154.905 22.4883 155.777 20.7246 156.884 19.1455C158.012 17.5664 159.417 16.3154 161.099 15.3926C162.78 14.4697 164.77 14.0288 167.066 14.0698C168.912 14.1313 170.43 14.5312 171.619 15.2695C172.809 16.0078 173.711 16.9922 174.326 18.2227C174.962 19.4531 175.372 20.8271 175.557 22.3447C175.741 23.8623 175.751 25.4312 175.587 27.0513L172.081 48H161.929L165.436 27.0205C165.539 26.1797 165.559 25.3901 165.498 24.6519C165.436 23.8931 165.19 23.2778 164.759 22.8062C164.349 22.314 163.642 22.0576 162.637 22.0371C161.488 21.9961 160.504 22.2217 159.684 22.7139C158.884 23.2061 158.217 23.8623 157.684 24.6826C157.151 25.4824 156.73 26.3745 156.423 27.3589C156.115 28.3228 155.879 29.2764 155.715 30.2197ZM200.658 14.7158L199.397 21.9141H179.894L181.155 14.7158H200.658ZM186.662 6.44092H196.782L191.491 37.2026C191.409 37.9204 191.409 38.5151 191.491 38.9868C191.573 39.438 191.789 39.7866 192.137 40.0327C192.506 40.2583 193.07 40.3916 193.829 40.4326C194.26 40.4531 194.69 40.4429 195.121 40.4019C195.552 40.3608 195.982 40.3198 196.413 40.2788L195.706 47.7847C194.824 48.0718 193.921 48.2769 192.999 48.3999C192.096 48.5229 191.173 48.5845 190.23 48.5845C188.138 48.5435 186.385 48.123 184.97 47.3232C183.575 46.5029 182.56 45.3442 181.924 43.8472C181.309 42.3296 181.094 40.5249 181.278 38.4331L186.662 6.44092ZM217.639 3.21094L209.856 48H199.335L207.087 3.21094H217.639ZM243.909 3.21094L222.93 26.1592L211.056 37.2949L210.871 26.6206L218.685 16.9922L230.282 3.21094H243.909ZM223.637 48L215.762 27.4512L224.591 21.5449L235.634 48H223.637ZM253.661 48.6152C251.364 48.5742 249.272 48.1538 247.385 47.354C245.499 46.5337 243.899 45.4058 242.586 43.9702C241.274 42.5347 240.3 40.853 239.664 38.9253C239.049 36.9771 238.823 34.8545 238.987 32.5576L239.11 31.3579C239.356 28.938 239.931 26.6821 240.833 24.5903C241.735 22.478 242.945 20.6323 244.463 19.0532C245.98 17.4536 247.765 16.2129 249.815 15.3311C251.887 14.4492 254.204 14.0391 256.768 14.1006C259.085 14.1416 261.084 14.603 262.766 15.4849C264.468 16.3667 265.853 17.5664 266.919 19.084C267.985 20.5811 268.724 22.3037 269.134 24.252C269.564 26.1797 269.667 28.2305 269.441 30.4043L268.857 34.6187H242.402L243.448 28.1279L259.751 28.1587L259.936 27.2666C260.08 26.3027 260.039 25.4312 259.813 24.6519C259.587 23.8726 259.167 23.2573 258.552 22.8062C257.937 22.3345 257.106 22.0781 256.06 22.0371C254.789 22.0166 253.732 22.2935 252.892 22.8677C252.071 23.4419 251.405 24.2007 250.892 25.144C250.4 26.0874 250.021 27.1128 249.754 28.2202C249.487 29.3071 249.292 30.353 249.169 31.3579L249.046 32.5269C248.964 33.5317 248.995 34.5059 249.139 35.4492C249.282 36.3926 249.569 37.2437 250 38.0024C250.451 38.7612 251.056 39.3765 251.815 39.8481C252.574 40.2993 253.527 40.5454 254.676 40.5864C256.214 40.6274 257.649 40.3403 258.982 39.7251C260.315 39.1099 261.515 38.269 262.582 37.2026L266.796 42.8013C265.873 44.1958 264.684 45.3237 263.228 46.1851C261.771 47.0259 260.203 47.6411 258.521 48.0308C256.86 48.4409 255.24 48.6357 253.661 48.6152ZM283.192 40.4941L293.497 14.7158H304.417L288.637 48H282.208L283.192 40.4941ZM283.438 14.7158L285.653 41.3862L284.545 48H278.362L273.01 14.7158H283.438ZM318.106 14.7158L312.354 48H302.203L307.986 14.7158H318.106ZM308.878 6.31787C308.837 4.71826 309.37 3.44678 310.478 2.50342C311.605 1.56006 312.928 1.07813 314.446 1.05762C315.902 1.03711 317.194 1.46777 318.322 2.34961C319.45 3.21094 320.024 4.41064 320.044 5.94873C320.085 7.54834 319.542 8.81982 318.414 9.76318C317.307 10.7065 315.994 11.1885 314.477 11.209C313.021 11.2295 311.729 10.8091 310.601 9.94775C309.493 9.06592 308.919 7.85596 308.878 6.31787ZM332.841 22.3755L328.381 48H318.26L324.043 14.7158H333.487L332.841 22.3755ZM330.319 30.2197L328.227 30.3428C328.412 28.3535 328.822 26.3848 329.458 24.4365C330.093 22.4678 330.975 20.6938 332.103 19.1147C333.251 17.5356 334.667 16.2949 336.348 15.3926C338.05 14.4697 340.05 14.0288 342.347 14.0698C344.213 14.1313 345.741 14.5312 346.93 15.2695C348.14 16.0078 349.063 16.9922 349.699 18.2227C350.334 19.4326 350.734 20.8066 350.898 22.3447C351.083 23.8623 351.093 25.4312 350.929 27.0513L347.422 48H337.24L340.778 26.959C340.88 25.9951 340.85 25.144 340.686 24.4058C340.542 23.6675 340.193 23.0933 339.64 22.6831C339.106 22.2729 338.307 22.0576 337.24 22.0371C336.051 22.0166 335.046 22.2422 334.226 22.7139C333.426 23.1855 332.759 23.8315 332.226 24.6519C331.713 25.4517 331.303 26.3438 330.996 27.3281C330.708 28.292 330.483 29.2559 330.319 30.2197ZM394.242 24.5288L394.026 26.3438C393.616 29.2764 392.827 32.0962 391.658 34.8032C390.509 37.4897 388.992 39.8789 387.105 41.9707C385.239 44.0625 383.024 45.7134 380.46 46.9233C377.897 48.1128 375.016 48.6768 371.816 48.6152C368.74 48.5537 366.115 47.8975 363.941 46.6465C361.788 45.3955 360.065 43.7241 358.773 41.6323C357.502 39.5405 356.641 37.1924 356.189 34.5879C355.738 31.9834 355.677 29.2969 356.005 26.5283L356.22 24.7134C356.63 21.8013 357.42 19.0122 358.589 16.3462C359.758 13.6597 361.286 11.2705 363.172 9.17871C365.059 7.08691 367.284 5.45654 369.848 4.2876C372.411 3.09814 375.282 2.53418 378.461 2.5957C381.517 2.63672 384.121 3.28271 386.274 4.53369C388.428 5.78467 390.14 7.45605 391.412 9.54785C392.704 11.6191 393.575 13.957 394.026 16.5615C394.498 19.1455 394.57 21.8013 394.242 24.5288ZM383.321 26.5283L383.567 24.6211C383.711 23.4111 383.803 22.0474 383.844 20.5298C383.885 19.0122 383.752 17.5459 383.444 16.1309C383.137 14.6953 382.542 13.5059 381.66 12.5625C380.799 11.6191 379.527 11.1064 377.846 11.0244C375.979 10.9424 374.4 11.3218 373.108 12.1626C371.816 12.9829 370.75 14.0903 369.909 15.4849C369.089 16.8589 368.443 18.356 367.971 19.9761C367.5 21.5962 367.161 23.1548 366.956 24.6519L366.71 26.5591C366.566 27.769 366.464 29.1431 366.402 30.6812C366.361 32.1987 366.484 33.6753 366.771 35.1108C367.079 36.5464 367.674 37.7461 368.556 38.71C369.438 39.6533 370.729 40.1558 372.432 40.2173C374.257 40.2993 375.815 39.9199 377.107 39.0791C378.399 38.2178 379.466 37.0898 380.307 35.6953C381.168 34.3008 381.834 32.7935 382.306 31.1733C382.798 29.5532 383.137 28.0049 383.321 26.5283ZM409.561 22.3755L405.101 48H394.98L400.763 14.7158H410.207L409.561 22.3755ZM407.039 30.2197L404.947 30.3428C405.131 28.3535 405.542 26.3848 406.177 24.4365C406.813 22.4678 407.695 20.6938 408.823 19.1147C409.971 17.5356 411.386 16.2949 413.068 15.3926C414.77 14.4697 416.77 14.0288 419.066 14.0698C420.933 14.1313 422.46 14.5312 423.65 15.2695C424.86 16.0078 425.783 16.9922 426.418 18.2227C427.054 19.4326 427.454 20.8066 427.618 22.3447C427.803 23.8623 427.813 25.4312 427.649 27.0513L424.142 48H413.96L417.498 26.959C417.6 25.9951 417.569 25.144 417.405 24.4058C417.262 23.6675 416.913 23.0933 416.359 22.6831C415.826 22.2729 415.026 22.0576 413.96 22.0371C412.771 22.0166 411.766 22.2422 410.945 22.7139C410.146 23.1855 409.479 23.8315 408.946 24.6519C408.433 25.4517 408.023 26.3438 407.715 27.3281C407.428 28.292 407.203 29.2559 407.039 30.2197ZM448.567 0.75L440.384 48H430.233L438.416 0.75H448.567ZM462.933 14.7158L457.18 48H447.029L452.812 14.7158H462.933ZM453.704 6.31787C453.663 4.71826 454.196 3.44678 455.304 2.50342C456.432 1.56006 457.754 1.07813 459.272 1.05762C460.728 1.03711 462.02 1.46777 463.148 2.34961C464.276 3.21094 464.85 4.41064 464.871 5.94873C464.912 7.54834 464.368 8.81982 463.24 9.76318C462.133 10.7065 460.82 11.1885 459.303 11.209C457.847 11.2295 456.555 10.8091 455.427 9.94775C454.319 9.06592 453.745 7.85596 453.704 6.31787ZM477.667 22.3755L473.207 48H463.086L468.87 14.7158H478.313L477.667 22.3755ZM475.145 30.2197L473.053 30.3428C473.238 28.3535 473.648 26.3848 474.284 24.4365C474.919 22.4678 475.801 20.6938 476.929 19.1147C478.078 17.5356 479.493 16.2949 481.174 15.3926C482.876 14.4697 484.876 14.0288 487.173 14.0698C489.039 14.1313 490.567 14.5312 491.756 15.2695C492.966 16.0078 493.889 16.9922 494.525 18.2227C495.161 19.4326 495.561 20.8066 495.725 22.3447C495.909 23.8623 495.919 25.4312 495.755 27.0513L492.249 48H482.066L485.604 26.959C485.707 25.9951 485.676 25.144 485.512 24.4058C485.368 23.6675 485.02 23.0933 484.466 22.6831C483.933 22.2729 483.133 22.0576 482.066 22.0371C480.877 22.0166 479.872 22.2422 479.052 22.7139C478.252 23.1855 477.585 23.8315 477.052 24.6519C476.54 25.4517 476.129 26.3438 475.822 27.3281C475.535 28.292 475.309 29.2559 475.145 30.2197ZM514.274 48.6152C511.977 48.5742 509.885 48.1538 507.999 47.354C506.112 46.5337 504.512 45.4058 503.2 43.9702C501.887 42.5347 500.913 40.853 500.277 38.9253C499.662 36.9771 499.437 34.8545 499.601 32.5576L499.724 31.3579C499.97 28.938 500.544 26.6821 501.446 24.5903C502.349 22.478 503.559 20.6323 505.076 19.0532C506.594 17.4536 508.378 16.2129 510.429 15.3311C512.5 14.4492 514.817 14.0391 517.381 14.1006C519.698 14.1416 521.698 14.603 523.379 15.4849C525.082 16.3667 526.466 17.5664 527.532 19.084C528.599 20.5811 529.337 22.3037 529.747 24.252C530.178 26.1797 530.28 28.2305 530.055 30.4043L529.47 34.6187H503.015L504.061 28.1279L520.365 28.1587L520.549 27.2666C520.693 26.3027 520.652 25.4312 520.426 24.6519C520.201 23.8726 519.78 23.2573 519.165 22.8062C518.55 22.3345 517.719 22.0781 516.673 22.0371C515.402 22.0166 514.346 22.2935 513.505 22.8677C512.685 23.4419 512.018 24.2007 511.505 25.144C511.013 26.0874 510.634 27.1128 510.367 28.2202C510.101 29.3071 509.906 30.353 509.783 31.3579L509.66 32.5269C509.578 33.5317 509.608 34.5059 509.752 35.4492C509.896 36.3926 510.183 37.2437 510.613 38.0024C511.064 38.7612 511.669 39.3765 512.428 39.8481C513.187 40.2993 514.141 40.5454 515.289 40.5864C516.827 40.6274 518.263 40.3403 519.596 39.7251C520.929 39.1099 522.128 38.269 523.195 37.2026L527.409 42.8013C526.486 44.1958 525.297 45.3237 523.841 46.1851C522.385 47.0259 520.816 47.6411 519.134 48.0308C517.473 48.4409 515.853 48.6357 514.274 48.6152ZM549.896 33.8188L541.406 33.8804C541.508 32.3013 541.734 30.8145 542.083 29.4199C542.452 28.0254 543.005 26.7231 543.744 25.5132C544.502 24.3032 545.518 23.1958 546.789 22.1909C547.609 21.5757 548.44 20.9092 549.281 20.1914C550.122 19.4736 550.86 18.6841 551.496 17.8228C552.131 16.9614 552.531 15.9873 552.695 14.9004C552.818 14.1621 552.829 13.4546 552.726 12.7778C552.624 12.1011 552.357 11.5576 551.926 11.1475C551.496 10.7168 550.839 10.4912 549.958 10.4707C548.994 10.4502 548.184 10.6963 547.527 11.209C546.892 11.7217 546.389 12.3779 546.02 13.1777C545.671 13.957 545.415 14.7568 545.251 15.5771L535.1 15.6387C535.325 12.7676 536.135 10.3579 537.53 8.40967C538.945 6.44092 540.78 4.96436 543.036 3.97998C545.312 2.99561 547.845 2.52393 550.634 2.56494C553.075 2.62646 555.279 3.1084 557.248 4.01074C559.217 4.89258 560.745 6.21533 561.832 7.979C562.918 9.72217 563.37 11.9063 563.185 14.5312C563.062 16.3975 562.539 18.0381 561.616 19.4531C560.714 20.8682 559.606 22.1499 558.294 23.2983C556.981 24.4263 555.648 25.5234 554.295 26.5898C553.023 27.5742 552.039 28.6304 551.342 29.7583C550.645 30.8862 550.163 32.2397 549.896 33.8188ZM538.207 43.3857C538.166 41.7861 538.699 40.4839 539.806 39.479C540.934 38.4741 542.267 37.9614 543.805 37.9409C545.282 37.9409 546.574 38.4023 547.681 39.3252C548.789 40.248 549.353 41.4683 549.373 42.9858C549.414 44.5854 548.871 45.8877 547.743 46.8926C546.635 47.8975 545.312 48.3999 543.774 48.3999C542.298 48.4204 541.006 47.9692 539.898 47.0464C538.812 46.1235 538.248 44.9033 538.207 43.3857Z" fill="url(#paint0_linear_29_2)"/>
<defs>
<linearGradient id="paint0_linear_29_2" x1="0" y1="4" x2="63.5331" y2="205.249" gradientUnits="userSpaceOnUse">
<stop stop-color="#42E695"/>
<stop offset="0.5" stop-color="#3AD4B1"/>
<stop offset="1" stop-color="#3BB2B8"/>
</linearGradient>
</defs>
</svg>
